<svg xmlns="http://www.w3.org/2000/svg" xmlns:xlink="http://www.w3.org/1999/xlink" width="141" zoomAndPan="magnify" viewBox="0 0 105.75 106.499997" height="142" preserveAspectRatio="xMidYMid meet" version="1.0"><defs><clipPath id="a5338703df"><path d="M 6.613281 30.703125 L 99.394531 30.703125 L 99.394531 95.800781 L 6.613281 95.800781 Z M 6.613281 30.703125 " clip-rule="nonzero"/></clipPath></defs><g clip-path="url(#a5338703df)"><path fill="#5831a4" d="M 9.882812 74.085938 L 9.882812 34.675781 C 9.882812 32.484375 11.660156 30.710938 13.855469 30.710938 L 53.296875 30.710938 C 55.488281 30.710938 57.265625 32.484375 57.265625 34.675781 L 57.265625 74.085938 C 57.265625 74.816406 56.671875 75.40625 55.941406 75.40625 L 11.207031 75.40625 C 10.476562 75.40625 9.882812 74.816406 9.882812 74.085938 Z M 41.734375 87.585938 C 41.734375 92.128906 38.046875 95.808594 33.5 95.808594 C 28.949219 95.808594 25.265625 92.128906 25.265625 87.585938 C 25.265625 83.042969 28.949219 79.363281 33.5 79.363281 C 38.046875 79.363281 41.734375 83.042969 41.734375 87.585938 Z M 37.617188 87.585938 C 37.617188 85.316406 35.773438 83.472656 33.5 83.472656 C 31.222656 83.472656 29.382812 85.316406 29.382812 87.585938 C 29.382812 89.855469 31.222656 91.699219 33.5 91.699219 C 35.773438 91.699219 37.617188 89.855469 37.617188 87.585938 Z M 26.40625 79.363281 L 7.953125 79.363281 C 7.222656 79.363281 6.628906 79.953125 6.628906 80.683594 L 6.628906 84.695312 C 6.628906 85.421875 7.222656 86.015625 7.953125 86.015625 L 22.746094 86.015625 C 23.128906 83.367188 24.46875 81.03125 26.40625 79.363281 Z M 84.820312 87.585938 C 84.820312 92.128906 81.132812 95.808594 76.585938 95.808594 C 72.035156 95.808594 68.351562 92.128906 68.351562 87.585938 C 68.351562 83.042969 72.035156 79.363281 76.585938 79.363281 C 81.132812 79.363281 84.820312 83.042969 84.820312 87.585938 Z M 80.703125 87.585938 C 80.703125 85.316406 78.859375 83.472656 76.585938 83.472656 C 74.3125 83.472656 72.46875 85.316406 72.46875 87.585938 C 72.46875 89.855469 74.3125 91.699219 76.585938 91.699219 C 78.859375 91.699219 80.703125 89.855469 80.703125 87.585938 Z M 99.378906 80.683594 L 99.378906 84.695312 C 99.378906 85.421875 98.785156 86.015625 98.054688 86.015625 L 87.339844 86.015625 C 86.574219 80.765625 82.050781 76.71875 76.585938 76.71875 C 71.121094 76.71875 66.597656 80.765625 65.828125 86.015625 L 44.253906 86.015625 C 43.867188 83.367188 42.53125 81.03125 40.589844 79.363281 L 61.050781 79.363281 L 61.050781 41.554688 C 61.050781 40.09375 62.234375 38.910156 63.695312 38.910156 L 76.191406 38.910156 C 79.710938 38.910156 82.996094 40.65625 84.964844 43.566406 L 93.019531 55.484375 C 94.203125 57.230469 94.832031 59.289062 94.832031 61.398438 L 94.832031 79.363281 L 98.054688 79.363281 C 98.785156 79.363281 99.378906 79.953125 99.378906 80.683594 Z M 85.953125 55.789062 L 79.511719 46.648438 C 79.261719 46.296875 78.859375 46.085938 78.429688 46.085938 L 68.382812 46.085938 C 67.652344 46.085938 67.058594 46.679688 67.058594 47.40625 L 67.058594 56.550781 C 67.058594 57.277344 67.652344 57.871094 68.382812 57.871094 L 84.871094 57.871094 C 85.941406 57.871094 86.570312 56.664062 85.953125 55.789062 Z M 85.953125 55.789062 " fill-opacity="1" fill-rule="nonzero"/></g><path stroke-linecap="butt" transform="matrix(0.754482, 0, 0, 0.74826, 19.709759, 53.126461)" fill="none" stroke-linejoin="miter" d="M 0.00156199 1.997478 L 33.706398 1.997478 " stroke="#ffffff" stroke-width="4" stroke-opacity="1" stroke-miterlimit="4"/><path stroke-linecap="round" transform="matrix(0.754482, 0, 0, 0.74826, 19.709759, 53.126461)" fill="none" stroke-linejoin="round" d="M 25.702147 -4.000813 L 33.706398 1.997478 L 25.702147 8.000989 " stroke="#ffffff" stroke-width="4" stroke-opacity="1" stroke-miterlimit="4"/></svg>