<svg xmlns="http://www.w3.org/2000/svg" xmlns:xlink="http://www.w3.org/1999/xlink" width="141" zoomAndPan="magnify" viewBox="0 0 105.75 106.499997" height="142" preserveAspectRatio="xMidYMid meet" version="1.0"><defs><clipPath id="d883f70233"><path d="M 5.707031 5.597656 L 99.988281 5.597656 L 99.988281 99.878906 L 5.707031 99.878906 Z M 5.707031 5.597656 " clip-rule="nonzero"/></clipPath><clipPath id="9dacdddb2e"><path d="M 44 39.789062 L 66.601562 39.789062 L 66.601562 62 L 44 62 Z M 44 39.789062 " clip-rule="nonzero"/></clipPath><clipPath id="2910ee886f"><path d="M 38.914062 41 L 64 41 L 64 65.976562 L 38.914062 65.976562 Z M 38.914062 41 " clip-rule="nonzero"/></clipPath></defs><g clip-path="url(#d883f70233)"><path fill="#5831a4" d="M 94.6875 50.730469 C 94.6875 31.886719 94.648438 14.433594 94.648438 14.214844 L 94.523438 14.214844 C 94.523438 11.570312 94.523438 10.035156 94.523438 10.035156 C 94.503906 9.976562 92.382812 9.917969 88.820312 9.894531 C 88.417969 7.3125 88.214844 5.800781 88.214844 5.800781 C 88.132812 5.660156 74.621094 7.515625 58.5625 9.773438 C 56.597656 9.773438 54.597656 9.773438 52.613281 9.773438 C 31.980469 9.773438 11.449219 9.816406 11.207031 9.816406 L 11.207031 10.136719 C 11.207031 10.320312 11.207031 12.417969 11.1875 15.847656 C 11.1875 16.070312 11.1875 16.3125 11.167969 16.574219 C 7.808594 17.058594 5.785156 17.359375 5.707031 17.359375 L 5.746094 17.683594 C 5.828125 18.226562 8.335938 36.164062 11.003906 55.128906 C 11.003906 63.058594 11.003906 71.007812 11.027344 77.824219 C 11.003906 86.640625 11.003906 92.753906 11.027344 92.996094 C 11.027344 92.996094 11.027344 92.996094 11.046875 92.996094 C 11.046875 95.621094 11.046875 97.132812 11.046875 97.132812 C 11.066406 97.195312 13.269531 97.234375 16.972656 97.253906 C 17.195312 98.746094 17.316406 99.613281 17.335938 99.695312 C 17.355469 99.816406 24.960938 98.789062 35.542969 97.3125 C 40.960938 97.3125 46.828125 97.335938 52.714844 97.335938 C 73.550781 97.335938 94.402344 97.292969 94.402344 97.292969 C 94.484375 97.253906 94.546875 94.046875 94.585938 88.902344 C 97.882812 88.417969 99.824219 88.136719 99.824219 88.136719 C 99.988281 88.054688 97.4375 69.957031 94.6875 50.730469 Z M 94.019531 92.753906 C 81.761719 92.753906 73.609375 92.773438 67.703125 92.773438 C 78.324219 91.261719 88.09375 89.851562 94.019531 88.980469 C 94.019531 90.210938 94.019531 91.464844 94.019531 92.753906 Z M 52.613281 92.796875 C 46.203125 92.796875 39.707031 92.816406 16.691406 92.835938 C 13.230469 68.949219 12.503906 63.804688 11.472656 56.78125 C 11.472656 49.679688 11.449219 43.769531 11.429688 17.199219 C 20.128906 15.949219 26.4375 15.039062 31.253906 14.355469 C 43.085938 14.335938 47.921875 14.335938 52.734375 14.335938 C 59.207031 14.3125 65.621094 14.292969 88.882812 14.234375 C 92.28125 37.878906 92.925781 42.398438 94 49.761719 C 94 57.046875 94 62.410156 94.019531 88.539062 C 77.835938 90.859375 69.949219 91.988281 64.46875 92.773438 C 59.105469 92.773438 55.871094 92.796875 52.613281 92.796875 Z M 61.25 93.238281 C 58.398438 93.640625 55.953125 94.003906 52.632812 94.46875 L 36.410156 96.789062 L 17.257812 96.808594 C 17.074219 95.539062 16.890625 94.308594 16.730469 93.117188 C 24.316406 93.199219 38.453125 93.21875 52.613281 93.21875 C 55.507812 93.238281 58.417969 93.238281 61.25 93.238281 Z M 11.429688 14.375 C 17.355469 14.375 22.3125 14.355469 26.539062 14.355469 C 20.453125 15.222656 15.171875 15.988281 11.429688 16.535156 C 11.429688 15.828125 11.429688 15.101562 11.429688 14.375 Z M 11.472656 58.355469 C 13.351562 71.671875 15.234375 85.007812 16.34375 92.816406 C 14.808594 92.816406 13.191406 92.816406 11.492188 92.816406 C 11.492188 72.015625 11.472656 64.289062 11.472656 58.355469 Z M 33.335938 14.050781 C 43.027344 12.660156 46.203125 12.214844 52.632812 11.289062 L 58.539062 10.441406 L 88.335938 10.441406 C 88.519531 11.753906 88.699219 13.003906 88.882812 14.214844 C 81.335938 14.191406 67.035156 14.152344 52.753906 14.113281 C 46.039062 14.09375 39.34375 14.070312 33.335938 14.050781 Z M 94 45.867188 C 92.28125 33.824219 90.539062 21.898438 89.429688 14.234375 C 90.882812 14.234375 92.382812 14.234375 93.980469 14.214844 C 93.980469 31.867188 93.980469 40.136719 94 45.867188 Z M 93.980469 10.421875 C 93.980469 11.730469 93.980469 12.984375 93.980469 14.214844 C 93.3125 14.214844 91.714844 14.214844 89.429688 14.191406 C 89.226562 12.78125 89.042969 11.511719 88.882812 10.421875 Z M 87.730469 6.265625 C 87.910156 7.515625 88.074219 8.726562 88.253906 9.894531 C 82.449219 9.835938 73.207031 9.816406 63.113281 9.796875 Z M 11.207031 10.480469 L 52.613281 10.460938 L 53.886719 10.460938 C 53.464844 10.519531 53.058594 10.582031 52.632812 10.640625 C 44.523438 11.792969 36.109375 13.003906 28.703125 14.070312 C 18.691406 14.050781 11.53125 14.050781 11.289062 14.070312 C 11.269531 14.070312 11.25 14.335938 11.226562 14.839844 C 11.207031 13.425781 11.207031 11.972656 11.207031 10.480469 Z M 5.808594 18.007812 C 7.6875 17.742188 9.46875 17.480469 11.167969 17.238281 C 11.066406 23.574219 11.027344 38.445312 11.027344 53.675781 C 10.136719 47.601562 8.839844 38.765625 5.808594 18.007812 Z M 11.492188 96.832031 C 11.492188 95.519531 11.492188 94.269531 11.492188 93.039062 C 12.257812 93.078125 13.980469 93.097656 16.386719 93.136719 C 16.589844 94.570312 16.769531 95.820312 16.910156 96.832031 Z M 17.660156 99.492188 C 17.558594 98.726562 17.4375 97.980469 17.335938 97.253906 C 21.21875 97.292969 26.621094 97.3125 32.789062 97.3125 Z M 52.734375 96.789062 L 39.324219 96.789062 C 43.492188 96.203125 48 95.558594 52.613281 94.914062 C 56.539062 94.347656 60.542969 93.785156 64.46875 93.21875 C 79.292969 93.21875 91.957031 93.179688 94.019531 93.179688 C 94.019531 94.328125 94.019531 95.519531 94.019531 96.75 Z M 94.605469 88.457031 C 94.667969 80.226562 94.6875 67.335938 94.6875 54.582031 C 95.558594 60.636719 96.871094 69.695312 99.460938 87.75 C 97.761719 87.992188 96.144531 88.234375 94.605469 88.457031 Z M 94.605469 88.457031 " fill-opacity="1" fill-rule="evenodd"/></g><g clip-path="url(#9dacdddb2e)"><path fill="#5831a4" d="M 44.246094 52.117188 C 44.273438 51.773438 44.417969 51.464844 44.628906 51.1875 C 45.371094 50.203125 47.03125 49.753906 48.195312 50.476562 C 48.882812 50.90625 49.429688 51.457031 49.886719 52.105469 C 50.269531 52.648438 50.613281 53.214844 50.980469 53.785156 C 51.238281 53.414062 51.5 53.035156 51.765625 52.660156 C 54.058594 49.441406 56.574219 46.421875 59.492188 43.757812 C 61.285156 42.125 63.335938 40.910156 65.546875 39.953125 C 65.929688 39.785156 66.25 39.851562 66.578125 40.183594 C 66.425781 40.328125 66.277344 40.464844 66.128906 40.605469 C 64.199219 42.445312 62.308594 44.324219 60.59375 46.371094 C 59.613281 47.542969 58.703125 48.773438 57.769531 49.980469 C 55.882812 52.414062 54.472656 55.148438 52.871094 57.765625 C 52.253906 58.773438 51.640625 59.785156 51.019531 60.796875 C 50.773438 61.195312 50.449219 61.191406 50.203125 60.78125 C 49.402344 59.453125 48.769531 58.039062 48.171875 56.605469 C 47.675781 55.410156 47.113281 54.246094 46.402344 53.160156 C 46.050781 52.621094 45.636719 52.179688 44.957031 52.121094 C 44.726562 52.101562 44.492188 52.117188 44.246094 52.117188 Z M 44.246094 52.117188 " fill-opacity="1" fill-rule="nonzero"/></g><g clip-path="url(#2910ee886f)"><path fill="#5831a4" d="M 61.578125 47.957031 L 59.699219 49.847656 C 60.242188 51.058594 60.542969 52.398438 60.542969 53.808594 C 60.542969 59.125 56.269531 63.4375 51 63.4375 C 45.726562 63.4375 41.453125 59.125 41.453125 53.808594 C 41.453125 48.492188 45.726562 44.183594 51 44.183594 C 52.316406 44.183594 53.570312 44.453125 54.710938 44.9375 L 56.605469 43.03125 C 54.929688 42.144531 53.023438 41.640625 51 41.640625 C 44.335938 41.640625 38.933594 47.089844 38.933594 53.808594 C 38.933594 60.53125 44.335938 65.976562 51 65.976562 C 57.664062 65.976562 63.0625 60.527344 63.0625 53.808594 C 63.0625 51.6875 62.527344 49.691406 61.578125 47.957031 Z M 61.578125 47.957031 " fill-opacity="1" fill-rule="nonzero"/></g></svg>