<svg xmlns="http://www.w3.org/2000/svg" xmlns:xlink="http://www.w3.org/1999/xlink" width="250" zoomAndPan="magnify" viewBox="0 0 187.5 37.5" height="50" preserveAspectRatio="xMidYMid meet" version="1.0"><defs><filter x="0%" y="0%" width="100%" height="100%" id="bb9bdff80d"><feColorMatrix values="0 0 0 0 1 0 0 0 0 1 0 0 0 0 1 0 0 0 1 0" color-interpolation-filters="sRGB"/></filter><g/><clipPath id="0b3c9245c9"><path d="M 0.988281 15.097656 L 45.757812 15.097656 L 45.757812 18.550781 L 0.988281 18.550781 Z M 0.988281 15.097656 " clip-rule="nonzero"/></clipPath><clipPath id="c3ced0d3a4"><path d="M 76.925781 15.097656 L 181.160156 15.097656 L 181.160156 18.550781 L 76.925781 18.550781 Z M 76.925781 15.097656 " clip-rule="nonzero"/></clipPath><mask id="46e95bc9e9"><g filter="url(#bb9bdff80d)"><rect x="-18.75" width="225" fill="#000000" y="-3.75" height="45" fill-opacity="0.6471"/></g></mask><clipPath id="c80d868293"><path d="M 0.328125 0.1875 L 16.433594 0.1875 L 16.433594 16.511719 L 0.328125 16.511719 Z M 0.328125 0.1875 " clip-rule="nonzero"/></clipPath><clipPath id="41d1be10b0"><rect x="0" width="17" y="0" height="17"/></clipPath><clipPath id="4b3e0bb1c7"><path d="M 67 17 L 90 17 L 90 37.007812 L 67 37.007812 Z M 67 17 " clip-rule="nonzero"/></clipPath><mask id="ee764b87a5"><g filter="url(#bb9bdff80d)"><rect x="-18.75" width="225" fill="#000000" y="-3.75" height="45" fill-opacity="0.6471"/></g></mask><clipPath id="47e32abecf"><path d="M 4 5 L 20 5 L 20 20 L 4 20 Z M 4 5 " clip-rule="nonzero"/></clipPath><clipPath id="6b6e222769"><path d="M 22.800781 14.003906 L 10.171875 23.132812 L 0.605469 9.902344 L 13.238281 0.773438 Z M 22.800781 14.003906 " clip-rule="nonzero"/></clipPath><clipPath id="1895abde64"><path d="M 22.800781 14.003906 L 10.171875 23.132812 L 0.605469 9.902344 L 13.238281 0.773438 Z M 22.800781 14.003906 " clip-rule="nonzero"/></clipPath><clipPath id="e6da0b764d"><rect x="0" width="23" y="0" height="21"/></clipPath><mask id="9d91a4d8ad"><g filter="url(#bb9bdff80d)"><rect x="-18.75" width="225" fill="#000000" y="-3.75" height="45" fill-opacity="0.6471"/></g></mask><clipPath id="31c258aca9"><path d="M 3 3 L 24 3 L 24 18 L 3 18 Z M 3 3 " clip-rule="nonzero"/></clipPath><clipPath id="4ac09ebc4a"><path d="M 8.507812 -3.0625 L 26.078125 8.03125 L 17.363281 21.835938 L -0.207031 10.746094 Z M 8.507812 -3.0625 " clip-rule="nonzero"/></clipPath><clipPath id="1ead574547"><path d="M 8.507812 -3.0625 L 26.078125 8.03125 L 17.363281 21.835938 L -0.207031 10.746094 Z M 8.507812 -3.0625 " clip-rule="nonzero"/></clipPath><clipPath id="b376408a7d"><rect x="0" width="25" y="0" height="21"/></clipPath><mask id="13fa75326e"><g filter="url(#bb9bdff80d)"><rect x="-18.75" width="225" fill="#000000" y="-3.75" height="45" fill-opacity="0.6471"/></g></mask><clipPath id="745029d0f0"><path d="M 1.078125 1 L 14.960938 1 L 14.960938 14.777344 L 1.078125 14.777344 Z M 1.078125 1 " clip-rule="nonzero"/></clipPath><clipPath id="d58ec52ab8"><rect x="0" width="15" y="0" height="15"/></clipPath><clipPath id="bf3b36be63"><path d="M 2.628906 17.847656 L 48.773438 17.847656 L 48.773438 21.011719 L 2.628906 21.011719 Z M 2.628906 17.847656 " clip-rule="nonzero"/></clipPath><clipPath id="f803123fd8"><path d="M 77.3125 17.847656 L 172.753906 17.847656 L 172.753906 21.011719 L 77.3125 21.011719 Z M 77.3125 17.847656 " clip-rule="nonzero"/></clipPath><mask id="d63d7123f1"><g filter="url(#bb9bdff80d)"><rect x="-18.75" width="225" fill="#000000" y="-3.75" height="45" fill-opacity="0.6471"/></g></mask><clipPath id="11ad44ce3a"><path d="M 1 0.355469 L 17.847656 0.355469 L 17.847656 17.421875 L 1 17.421875 Z M 1 0.355469 " clip-rule="nonzero"/></clipPath><clipPath id="8653b0cbba"><rect x="0" width="19" y="0" height="19"/></clipPath><mask id="f45177fe50"><g filter="url(#bb9bdff80d)"><rect x="-18.75" width="225" fill="#000000" y="-3.75" height="45" fill-opacity="0.6471"/></g></mask><clipPath id="9a8e4f86f2"><path d="M 4 4 L 22 4 L 22 18 L 4 18 Z M 4 4 " clip-rule="nonzero"/></clipPath><clipPath id="2a5ef3d2c4"><path d="M 14.441406 -0.164062 L 23.085938 12.804688 L 9.5 21.859375 L 0.855469 8.890625 Z M 14.441406 -0.164062 " clip-rule="nonzero"/></clipPath><clipPath id="47cc446092"><path d="M 14.441406 -0.164062 L 23.085938 12.804688 L 9.5 21.859375 L 0.855469 8.890625 Z M 14.441406 -0.164062 " clip-rule="nonzero"/></clipPath><clipPath id="4ebd1385b5"><rect x="0" width="23" y="0" height="22"/></clipPath></defs><g clip-path="url(#0b3c9245c9)"><path fill="#f6f6f6" d="M -4.632812 15.097656 L 45.789062 15.097656 L 45.789062 18.480469 L -4.632812 18.480469 Z M -4.632812 15.097656 " fill-opacity="1" fill-rule="nonzero"/></g><g clip-path="url(#c3ced0d3a4)"><path fill="#f6f6f6" d="M 76.925781 15.097656 L 181.152344 15.097656 L 181.152344 18.480469 L 76.925781 18.480469 Z M 76.925781 15.097656 " fill-opacity="1" fill-rule="nonzero"/></g><g mask="url(#46e95bc9e9)"><g transform="matrix(1, 0, 0, 1, 44, 1)"><g clip-path="url(#41d1be10b0)"><g clip-path="url(#c80d868293)"><path fill="#949494" d="M 8.871094 2.214844 C 9.566406 2.449219 10.308594 2.050781 11.039062 2.007812 C 12.054688 1.949219 13.597656 1.003906 14.066406 1.90625 C 14.664062 3.054688 12.390625 4.386719 12.898438 5.578125 C 13.363281 6.675781 15.707031 5.8125 16.195312 6.898438 C 16.585938 7.765625 14.847656 8.285156 14.511719 9.171875 C 14.207031 9.96875 14.9375 11.070312 14.367188 11.707031 C 13.777344 12.371094 12.386719 11.597656 11.773438 12.242188 C 10.878906 13.183594 11.4375 15.035156 10.425781 15.851562 C 9.613281 16.507812 8.226562 16.355469 7.316406 15.839844 C 6.335938 15.285156 6.371094 13.71875 5.464844 13.050781 C 4.652344 12.453125 3.355469 12.929688 2.546875 12.328125 C 1.753906 11.738281 1.386719 10.722656 1.070312 9.785156 C 0.753906 8.832031 0.257812 7.722656 0.707031 6.820312 C 1.207031 5.804688 2.722656 5.742188 3.488281 4.910156 C 4.027344 4.320312 4.0625 3.441406 4.453125 2.75 C 4.925781 1.898438 5.078125 0.441406 6.050781 0.324219 C 7.183594 0.1875 7.789062 1.847656 8.871094 2.214844 Z M 8.871094 2.214844 " fill-opacity="1" fill-rule="evenodd"/></g></g></g></g><g clip-path="url(#4b3e0bb1c7)"><g mask="url(#ee764b87a5)"><g transform="matrix(1, 0, 0, 1, 67, 17)"><g clip-path="url(#e6da0b764d)"><g clip-path="url(#47e32abecf)"><g clip-path="url(#6b6e222769)"><g clip-path="url(#1895abde64)"><path fill="#1613b4" d="M 15.304688 16.785156 C 14.566406 17.59375 14.859375 19.730469 13.769531 19.65625 C 12.398438 19.558594 12.414062 17.117188 11.191406 16.496094 C 10.472656 16.136719 9.707031 17.15625 8.90625 17.207031 C 7.933594 17.265625 6.28125 17.75 6.035156 16.808594 C 5.699219 15.507812 7.78125 14.585938 7.875 13.242188 C 7.925781 12.53125 6.808594 12.308594 6.394531 11.734375 C 5.773438 10.871094 4.90625 10.058594 4.8125 9 C 4.722656 8.027344 5.015625 6.726562 5.898438 6.296875 C 6.953125 5.785156 8.199219 6.582031 9.351562 6.792969 C 10.054688 6.921875 10.738281 7.554688 11.414062 7.320312 C 12.40625 6.96875 12.746094 5.511719 13.765625 5.246094 C 14.632812 5.023438 15.535156 5.585938 16.304688 6.046875 C 17.101562 6.523438 17.753906 7.203125 18.296875 7.957031 C 18.855469 8.738281 19.601562 9.578125 19.53125 10.539062 C 19.453125 11.558594 18.28125 12.164062 17.898438 13.113281 C 17.589844 13.894531 18 14.894531 17.515625 15.582031 C 17.027344 16.273438 15.878906 16.164062 15.304688 16.785156 Z M 15.304688 16.785156 " fill-opacity="1" fill-rule="evenodd"/></g></g></g></g></g></g></g><g mask="url(#9d91a4d8ad)"><g transform="matrix(1, 0, 0, 1, 93, -0.000000000000001478)"><g clip-path="url(#b376408a7d)"><g clip-path="url(#31c258aca9)"><g clip-path="url(#4ac09ebc4a)"><g clip-path="url(#1ead574547)"><path fill="#6eddc9" d="M 15.546875 5.519531 C 18.324219 6.664062 23.148438 6.195312 23.292969 9.171875 C 23.445312 12.203125 18.410156 11.957031 15.953125 13.726562 C 14.34375 14.886719 13.683594 17.9375 11.734375 17.488281 C 9.765625 17.035156 10.6875 13.804688 9.433594 12.222656 C 7.726562 10.070312 3.246094 9.8125 3.5 7.097656 C 3.746094 4.484375 7.605469 4.121094 10.21875 3.777344 C 12.160156 3.523438 13.730469 4.769531 15.546875 5.519531 Z M 15.546875 5.519531 " fill-opacity="1" fill-rule="evenodd"/></g></g></g></g></g></g><g mask="url(#13fa75326e)"><g transform="matrix(1, 0, 0, 1, 18, 20)"><g clip-path="url(#d58ec52ab8)"><g clip-path="url(#745029d0f0)"><path fill="#41149b" d="M 7.921875 1.589844 C 8.664062 1.722656 9.433594 1.714844 10.128906 2.007812 C 10.816406 2.296875 11.53125 2.664062 11.9375 3.285156 C 12.34375 3.90625 11.921875 4.863281 12.378906 5.449219 C 12.980469 6.222656 14.46875 6.113281 14.851562 7.011719 C 15.179688 7.785156 14.339844 8.589844 14.039062 9.371094 C 13.757812 10.109375 13.523438 10.855469 13.121094 11.535156 C 12.691406 12.257812 12.246094 12.988281 11.585938 13.511719 C 10.902344 14.050781 10.097656 14.472656 9.234375 14.621094 C 8.371094 14.765625 7.503906 14.546875 6.65625 14.339844 C 5.835938 14.132812 5.007812 13.894531 4.320312 13.402344 C 3.648438 12.917969 3.253906 12.167969 2.738281 11.523438 C 2.210938 10.867188 1.34375 10.363281 1.214844 9.535156 C 1.078125 8.6875 1.699219 7.902344 2.039062 7.109375 C 2.316406 6.453125 2.613281 5.8125 3.046875 5.246094 C 3.445312 4.722656 4.148438 4.476562 4.476562 3.910156 C 4.960938 3.066406 4.574219 1.714844 5.382812 1.167969 C 6.101562 0.6875 7.070312 1.441406 7.921875 1.589844 Z M 7.921875 1.589844 " fill-opacity="1" fill-rule="evenodd"/></g></g></g></g><g fill="#5831a4" fill-opacity="1"><g transform="translate(10.479534, 30.332694)"><g><path d="M 5.59375 0 L 5.59375 -21.21875 L 2.953125 -21.21875 L 2.953125 0 Z M 5.59375 0 "/></g></g></g><g fill="#5831a4" fill-opacity="1"><g transform="translate(18.089137, 30.332694)"><g><path d="M 28.40625 0 L 26.609375 0 L 5.59375 -17.125 L 5.59375 0 L 2.953125 0 L 2.953125 -21.21875 L 4.75 -21.21875 L 25.765625 -4.078125 L 25.765625 -21.21875 L 28.40625 -21.21875 Z M 28.40625 0 "/></g></g></g><g fill="#5831a4" fill-opacity="1"><g transform="translate(48.505355, 30.332694)"><g><path d="M 5.59375 0 L 2.953125 0 L 2.953125 -21.21875 L 27.09375 -21.21875 L 27.09375 -18.578125 L 5.59375 -18.578125 L 5.59375 -11.921875 L 24.59375 -11.921875 L 24.59375 -9.296875 L 5.59375 -9.296875 Z M 5.59375 0 "/></g></g></g><g fill="#5831a4" fill-opacity="1"><g transform="translate(76.865723, 30.332694)"><g><path d="M 5.59375 0 L 5.59375 -21.21875 L 2.953125 -21.21875 L 2.953125 0 Z M 5.59375 0 "/></g></g></g><g fill="#5831a4" fill-opacity="1"><g transform="translate(84.475327, 30.332694)"><g><path d="M 28.40625 0 L 26.609375 0 L 5.59375 -17.125 L 5.59375 0 L 2.953125 0 L 2.953125 -21.21875 L 4.75 -21.21875 L 25.765625 -4.078125 L 25.765625 -21.21875 L 28.40625 -21.21875 Z M 28.40625 0 "/></g></g></g><g fill="#5831a4" fill-opacity="1"><g transform="translate(114.89154, 30.332694)"><g><path d="M 5.59375 0 L 5.59375 -21.21875 L 2.953125 -21.21875 L 2.953125 0 Z M 5.59375 0 "/></g></g></g><g fill="#5831a4" fill-opacity="1"><g transform="translate(122.50114, 30.332694)"><g><path d="M 13.515625 0 L 10.890625 0 L 10.890625 -18.578125 L 0.4375 -18.578125 L 0.4375 -21.21875 L 23.96875 -21.21875 L 23.96875 -18.578125 L 13.515625 -18.578125 Z M 13.515625 0 "/></g></g></g><g fill="#5831a4" fill-opacity="1"><g transform="translate(145.965921, 30.332694)"><g><path d="M 15.796875 0 L 13.1875 0 L 13.1875 -10 L 0.4375 -21.21875 L 4.4375 -21.21875 L 14.484375 -12.359375 L 24.546875 -21.21875 L 28.53125 -21.21875 L 15.796875 -10 Z M 15.796875 0 "/></g></g></g><g clip-path="url(#bf3b36be63)"><path fill="#f6f6f6" d="M 2.628906 17.847656 L 48.800781 17.847656 L 48.800781 21.226562 L 2.628906 21.226562 Z M 2.628906 17.847656 " fill-opacity="1" fill-rule="nonzero"/></g><g clip-path="url(#f803123fd8)"><path fill="#f6f6f6" d="M 77.3125 17.847656 L 173.027344 17.847656 L 173.027344 21.226562 L 77.3125 21.226562 Z M 77.3125 17.847656 " fill-opacity="1" fill-rule="nonzero"/></g><g mask="url(#d63d7123f1)"><g transform="matrix(1, 0, 0, 1, 162, 2)"><g clip-path="url(#8653b0cbba)"><g clip-path="url(#11ad44ce3a)"><path fill="#6b8093" d="M 8.28125 1.515625 C 10.164062 1.222656 12.121094 0.355469 13.839844 1.175781 C 15.65625 2.046875 17.007812 3.902344 17.429688 5.886719 C 17.839844 7.792969 17.105469 9.796875 16.023438 11.414062 C 15.109375 12.78125 13.332031 13.074219 11.988281 14.019531 C 10.683594 14.941406 9.835938 16.507812 8.28125 16.871094 C 6.527344 17.285156 4.316406 17.421875 3.058594 16.121094 C 1.792969 14.808594 2.789062 12.59375 2.410156 10.800781 C 2.097656 9.296875 0.785156 8.027344 1.054688 6.511719 C 1.335938 4.925781 2.527344 3.640625 3.847656 2.726562 C 5.140625 1.832031 6.730469 1.753906 8.28125 1.515625 Z M 8.28125 1.515625 " fill-opacity="1" fill-rule="evenodd"/></g></g></g></g><g mask="url(#f45177fe50)"><g transform="matrix(1, 0, 0, 1, 123, 11)"><g clip-path="url(#4ebd1385b5)"><g clip-path="url(#9a8e4f86f2)"><g clip-path="url(#2a5ef3d2c4)"><g clip-path="url(#47cc446092)"><path fill="#d57aff" d="M 17.25 7.835938 C 18.449219 9.074219 20.863281 9.488281 21.003906 11.203125 C 21.144531 12.867188 18.972656 13.671875 17.835938 14.878906 C 16.824219 15.949219 16.140625 17.433594 14.738281 17.867188 C 13.316406 18.304688 11.878906 17.523438 10.429688 17.164062 C 8.75 16.746094 6.746094 16.910156 5.605469 15.59375 C 4.441406 14.246094 4.546875 12.25 4.636719 10.476562 C 4.730469 8.726562 4.789062 6.691406 6.132812 5.585938 C 7.453125 4.496094 9.417969 5.257812 11.128906 5.125 C 12.421875 5.027344 13.726562 4.386719 14.917969 4.910156 C 16.082031 5.429688 16.363281 6.917969 17.25 7.835938 Z M 17.25 7.835938 " fill-opacity="1" fill-rule="evenodd"/></g></g></g></g></g></g></svg>